<?xml version="1.0" encoding="UTF-8"?>
<svg width="600" height="300" version="1.1" xmlns="http://www.w3.org/2000/svg">
  <!-- Background -->
  <rect width="100%" height="100%" fill="#ADD8E6"/>

  <!-- Water Lines -->
  <path d="M0,150 C150,130 450,170 600,150" stroke="#0077BE" stroke-width="3" fill="none"/>
  <path d="M0,170 C150,150 450,190 600,170" stroke="#0077BE" stroke-width="3" fill="none"/>
  <path d="M0,190 C150,170 450,210 600,190" stroke="#0077BE" stroke-width="3" fill="none"/>

  <!-- Dragon Boat -->
  <g transform="translate(100,100)">
    <path d="M0,50 L50,0 L200,0 L250,50 L0,50 Z" fill="#D2691E"/>
    <rect x="50" y="10" width="150" height="40" fill="#8B4513"/>
    <circle cx="20" cy="25" r="15" fill="#FFD700"/>
  </g>

  <!-- Paddlers (Simple Representation) -->
  <rect x="70" y="15" width="20" height="30" fill="#FFFFFF"/>
  <rect x="110" y="15" width="20" height="30" fill="#FFFFFF"/>
  <rect x="150" y="15" width="20" height="30" fill="#FFFFFF"/>

  <!-- Dragon Head (Simplified) -->
  <path d="M-10,40 Q10,60 30,40 Q10,20 -10,40 Z" fill="#FFD700"/>
</svg>


